<mxfile host="app.diagrams.net" modified="2022-02-13T12:39:49.305Z" agent="5.0 (Windows NT 10.0; Win64; x64) AppleWebKit/537.36 (KHTML, like Gecko) Chrome/98.0.4758.82 Safari/537.36" etag="eB9GspL9tPW4_vQWBHDh" version="16.3.0" type="github">
  <diagram name="Page-1" id="74b105a0-9070-1c63-61bc-23e55f88626e">
    <mxGraphModel dx="1283" dy="1926" grid="1" gridSize="10" guides="1" tooltips="1" connect="1" arrows="1" fold="1" page="1" pageScale="1.5" pageWidth="1169" pageHeight="826" background="none" math="0" shadow="0">
      <root>
        <mxCell id="0" style=";html=1;" />
        <mxCell id="1" style=";html=1;" parent="0" />
        <mxCell id="XzeuhFE9ocaMywNSshkQ-113" value="" style="rounded=0;whiteSpace=wrap;html=1;glass=0;fontSize=17;fontColor=default;fillColor=none;strokeColor=#66FFB3;strokeWidth=5;dashed=1;perimeterSpacing=10;" vertex="1" parent="1">
          <mxGeometry x="617.5" y="1010" width="535" height="310" as="geometry" />
        </mxCell>
        <mxCell id="XzeuhFE9ocaMywNSshkQ-108" style="edgeStyle=orthogonalEdgeStyle;rounded=1;orthogonalLoop=1;jettySize=auto;html=1;entryX=0.5;entryY=0;entryDx=0;entryDy=0;labelBackgroundColor=#FFFFFF;fontSize=22;fontColor=default;startArrow=none;startFill=0;endArrow=classic;endFill=1;strokeWidth=3;" edge="1" parent="1" source="XzeuhFE9ocaMywNSshkQ-75" target="XzeuhFE9ocaMywNSshkQ-98">
          <mxGeometry relative="1" as="geometry" />
        </mxCell>
        <mxCell id="XzeuhFE9ocaMywNSshkQ-75" value="" style="rounded=0;whiteSpace=wrap;html=1;glass=0;fontSize=17;strokeWidth=5;dashed=1;perimeterSpacing=10;strokeColor=#FFE599;fillColor=none;" vertex="1" parent="1">
          <mxGeometry x="735" y="419" width="300" height="170" as="geometry" />
        </mxCell>
        <mxCell id="XzeuhFE9ocaMywNSshkQ-112" style="edgeStyle=orthogonalEdgeStyle;curved=0;rounded=1;sketch=1;orthogonalLoop=1;jettySize=auto;html=1;entryX=0.5;entryY=1;entryDx=0;entryDy=0;fontColor=#095C86;startSize=0;strokeColor=#000000;strokeWidth=3;fillColor=#F694C1;exitX=0;exitY=0.5;exitDx=0;exitDy=0;" edge="1" parent="1" source="XzeuhFE9ocaMywNSshkQ-113" target="XzeuhFE9ocaMywNSshkQ-78">
          <mxGeometry relative="1" as="geometry">
            <mxPoint x="530" y="1165" as="sourcePoint" />
          </mxGeometry>
        </mxCell>
        <mxCell id="XzeuhFE9ocaMywNSshkQ-9" value="" style="edgeStyle=orthogonalEdgeStyle;rounded=1;orthogonalLoop=1;jettySize=auto;html=1;fontSize=22;fontColor=default;labelBackgroundColor=#FFFFFF;startArrow=none;startFill=0;endFill=1;strokeWidth=3;" edge="1" parent="1" source="10b056a9c633e61c-4" target="XzeuhFE9ocaMywNSshkQ-7">
          <mxGeometry relative="1" as="geometry" />
        </mxCell>
        <mxCell id="10b056a9c633e61c-4" value="" style="strokeWidth=2;dashed=0;align=center;fontSize=12;shape=rect;verticalLabelPosition=bottom;verticalAlign=top;rounded=1;" parent="1" vertex="1">
          <mxGeometry x="810" width="150" height="90" as="geometry" />
        </mxCell>
        <mxCell id="10b056a9c633e61c-30" value="基本结构" style="text;strokeColor=none;fillColor=none;html=1;fontSize=24;fontStyle=1;verticalAlign=middle;align=center;rounded=1;" parent="1" vertex="1">
          <mxGeometry x="80" y="-60" width="1590" height="40" as="geometry" />
        </mxCell>
        <mxCell id="XzeuhFE9ocaMywNSshkQ-2" value="&lt;font style=&quot;font-size: 21px&quot;&gt;客户端&lt;/font&gt;" style="text;html=1;resizable=0;autosize=1;align=center;verticalAlign=middle;points=[];fillColor=none;strokeColor=none;rounded=0;fontColor=default;" vertex="1" parent="1">
          <mxGeometry x="845" y="35" width="80" height="20" as="geometry" />
        </mxCell>
        <mxCell id="XzeuhFE9ocaMywNSshkQ-97" style="edgeStyle=orthogonalEdgeStyle;rounded=1;orthogonalLoop=1;jettySize=auto;html=1;labelBackgroundColor=#FFFFFF;fontSize=22;fontColor=default;startArrow=none;startFill=0;endArrow=classic;endFill=1;strokeWidth=3;" edge="1" parent="1" source="XzeuhFE9ocaMywNSshkQ-7" target="XzeuhFE9ocaMywNSshkQ-75">
          <mxGeometry relative="1" as="geometry" />
        </mxCell>
        <mxCell id="XzeuhFE9ocaMywNSshkQ-7" value="" style="strokeWidth=2;dashed=0;align=center;fontSize=12;shape=rect;verticalLabelPosition=bottom;verticalAlign=top;fillColor=#d5e8d4;rounded=1;strokeColor=#82b366;" vertex="1" parent="1">
          <mxGeometry x="810" y="150" width="150" height="90" as="geometry" />
        </mxCell>
        <mxCell id="XzeuhFE9ocaMywNSshkQ-8" value="&lt;font style=&quot;font-size: 21px&quot;&gt;接入层&lt;/font&gt;" style="text;html=1;resizable=0;autosize=1;align=center;verticalAlign=middle;points=[];fillColor=none;strokeColor=none;rounded=0;fontColor=default;fontSize=21;" vertex="1" parent="1">
          <mxGeometry x="845" y="150" width="80" height="30" as="geometry" />
        </mxCell>
        <mxCell id="XzeuhFE9ocaMywNSshkQ-10" value="LVS/F5" style="text;html=1;resizable=0;autosize=1;align=center;verticalAlign=middle;points=[];fillColor=none;strokeColor=none;rounded=0;fontSize=21;fontColor=default;" vertex="1" parent="1">
          <mxGeometry x="845" y="200" width="80" height="30" as="geometry" />
        </mxCell>
        <mxCell id="XzeuhFE9ocaMywNSshkQ-31" value="" style="edgeStyle=orthogonalEdgeStyle;rounded=1;orthogonalLoop=1;jettySize=auto;html=1;fontSize=13;fontColor=default;dashed=1;" edge="1" parent="1" source="XzeuhFE9ocaMywNSshkQ-26" target="XzeuhFE9ocaMywNSshkQ-7">
          <mxGeometry relative="1" as="geometry" />
        </mxCell>
        <mxCell id="XzeuhFE9ocaMywNSshkQ-26" value="&lt;span&gt;并发量小，不需要&lt;/span&gt;" style="shape=process;whiteSpace=wrap;html=1;backgroundOutline=1;rounded=1;fontSize=13;fontColor=default;" vertex="1" parent="1">
          <mxGeometry x="1060" y="165" width="120" height="60" as="geometry" />
        </mxCell>
        <mxCell id="XzeuhFE9ocaMywNSshkQ-73" value="" style="edgeStyle=orthogonalEdgeStyle;rounded=1;orthogonalLoop=1;jettySize=auto;html=1;fontSize=15;fontColor=default;entryX=1;entryY=0.5;entryDx=0;entryDy=0;shape=flexArrow;endArrow=none;startArrow=block;labelBackgroundColor=#FFFFFF;startFill=0;endFill=0;" edge="1" parent="1" source="XzeuhFE9ocaMywNSshkQ-68" target="XzeuhFE9ocaMywNSshkQ-71">
          <mxGeometry relative="1" as="geometry" />
        </mxCell>
        <mxCell id="XzeuhFE9ocaMywNSshkQ-68" value="" style="strokeWidth=2;dashed=0;align=center;fontSize=12;shape=rect;verticalLabelPosition=bottom;verticalAlign=top;fillColor=#fff2cc;rounded=1;strokeColor=#d6b656;" vertex="1" parent="1">
          <mxGeometry x="915" y="489" width="100" height="50" as="geometry" />
        </mxCell>
        <mxCell id="XzeuhFE9ocaMywNSshkQ-70" value="nginx" style="text;html=1;resizable=0;autosize=1;align=center;verticalAlign=middle;points=[];fillColor=none;strokeColor=none;rounded=0;fontSize=21;fontColor=default;" vertex="1" parent="1">
          <mxGeometry x="930" y="499" width="70" height="30" as="geometry" />
        </mxCell>
        <mxCell id="XzeuhFE9ocaMywNSshkQ-71" value="" style="strokeWidth=2;dashed=0;align=center;fontSize=12;shape=rect;verticalLabelPosition=bottom;verticalAlign=top;fillColor=#fff2cc;rounded=1;strokeColor=#d6b656;" vertex="1" parent="1">
          <mxGeometry x="745" y="489" width="100" height="50" as="geometry" />
        </mxCell>
        <mxCell id="XzeuhFE9ocaMywNSshkQ-72" value="nginx" style="text;html=1;resizable=0;autosize=1;align=center;verticalAlign=middle;points=[];fillColor=none;strokeColor=none;rounded=0;fontSize=21;fontColor=default;" vertex="1" parent="1">
          <mxGeometry x="760" y="499" width="70" height="30" as="geometry" />
        </mxCell>
        <mxCell id="XzeuhFE9ocaMywNSshkQ-74" value="&lt;font style=&quot;font-size: 17px&quot;&gt;主&lt;/font&gt;" style="text;html=1;resizable=0;autosize=1;align=center;verticalAlign=middle;points=[];fillColor=none;strokeColor=none;rounded=0;glass=0;fontSize=15;fontColor=default;" vertex="1" parent="1">
          <mxGeometry x="775" y="469" width="30" height="20" as="geometry" />
        </mxCell>
        <mxCell id="XzeuhFE9ocaMywNSshkQ-76" value="&lt;span style=&quot;font-size: 22px&quot;&gt;负载均衡&lt;/span&gt;" style="text;html=1;resizable=0;autosize=1;align=center;verticalAlign=middle;points=[];fillColor=none;strokeColor=none;rounded=0;glass=0;fontSize=15;fontColor=default;" vertex="1" parent="1">
          <mxGeometry x="835" y="429" width="100" height="30" as="geometry" />
        </mxCell>
        <mxCell id="XzeuhFE9ocaMywNSshkQ-78" value="" style="rounded=0;whiteSpace=wrap;html=1;glass=0;fontSize=17;fontColor=default;fillColor=none;strokeColor=#FFB366;strokeWidth=5;dashed=1;perimeterSpacing=10;" vertex="1" parent="1">
          <mxGeometry x="50" y="690" width="300" height="170" as="geometry" />
        </mxCell>
        <mxCell id="XzeuhFE9ocaMywNSshkQ-79" value="" style="edgeStyle=orthogonalEdgeStyle;rounded=1;orthogonalLoop=1;jettySize=auto;html=1;fontSize=15;fontColor=default;entryX=1;entryY=0.5;entryDx=0;entryDy=0;shape=flexArrow;endArrow=block;startArrow=block;labelBackgroundColor=#FFFFFF;" edge="1" source="XzeuhFE9ocaMywNSshkQ-80" target="XzeuhFE9ocaMywNSshkQ-82" parent="1">
          <mxGeometry relative="1" as="geometry" />
        </mxCell>
        <mxCell id="XzeuhFE9ocaMywNSshkQ-80" value="" style="strokeWidth=2;dashed=0;align=center;fontSize=12;shape=rect;verticalLabelPosition=bottom;verticalAlign=top;fillColor=#FF8000;rounded=1;strokeColor=#82b366;" vertex="1" parent="1">
          <mxGeometry x="230" y="760" width="100" height="50" as="geometry" />
        </mxCell>
        <mxCell id="XzeuhFE9ocaMywNSshkQ-81" value="eureka" style="text;html=1;resizable=0;autosize=1;align=center;verticalAlign=middle;points=[];fillColor=none;strokeColor=none;rounded=0;fontSize=21;fontColor=default;" vertex="1" parent="1">
          <mxGeometry x="240" y="770" width="80" height="30" as="geometry" />
        </mxCell>
        <mxCell id="XzeuhFE9ocaMywNSshkQ-82" value="" style="strokeWidth=2;dashed=0;align=center;fontSize=12;shape=rect;verticalLabelPosition=bottom;verticalAlign=top;fillColor=#FF8000;rounded=1;strokeColor=#82b366;" vertex="1" parent="1">
          <mxGeometry x="60" y="760" width="100" height="50" as="geometry" />
        </mxCell>
        <mxCell id="XzeuhFE9ocaMywNSshkQ-83" value="eureka" style="text;html=1;resizable=0;autosize=1;align=center;verticalAlign=middle;points=[];fillColor=none;strokeColor=none;rounded=0;fontSize=21;fontColor=default;" vertex="1" parent="1">
          <mxGeometry x="70" y="770" width="80" height="30" as="geometry" />
        </mxCell>
        <mxCell id="XzeuhFE9ocaMywNSshkQ-84" value="&lt;font style=&quot;font-size: 17px&quot;&gt;注册&lt;/font&gt;" style="text;html=1;resizable=0;autosize=1;align=center;verticalAlign=middle;points=[];fillColor=none;strokeColor=none;rounded=0;glass=0;fontSize=15;fontColor=default;" vertex="1" parent="1">
          <mxGeometry x="170" y="750" width="50" height="20" as="geometry" />
        </mxCell>
        <mxCell id="XzeuhFE9ocaMywNSshkQ-85" value="&lt;font style=&quot;font-size: 22px&quot;&gt;注册中心&lt;/font&gt;" style="text;html=1;resizable=0;autosize=1;align=center;verticalAlign=middle;points=[];fillColor=none;strokeColor=none;rounded=0;glass=0;fontSize=15;fontColor=default;" vertex="1" parent="1">
          <mxGeometry x="150" y="700" width="100" height="30" as="geometry" />
        </mxCell>
        <mxCell id="XzeuhFE9ocaMywNSshkQ-86" value="&lt;font style=&quot;font-size: 17px&quot;&gt;备&lt;/font&gt;" style="text;html=1;resizable=0;autosize=1;align=center;verticalAlign=middle;points=[];fillColor=none;strokeColor=none;rounded=0;glass=0;fontSize=15;fontColor=default;" vertex="1" parent="1">
          <mxGeometry x="950" y="469" width="30" height="20" as="geometry" />
        </mxCell>
        <mxCell id="XzeuhFE9ocaMywNSshkQ-110" style="edgeStyle=orthogonalEdgeStyle;curved=0;rounded=1;sketch=1;orthogonalLoop=1;jettySize=auto;html=1;entryX=1;entryY=0.5;entryDx=0;entryDy=0;fontColor=#095C86;startSize=0;strokeColor=#000000;fillColor=#F694C1;strokeWidth=3;" edge="1" parent="1" source="XzeuhFE9ocaMywNSshkQ-98" target="XzeuhFE9ocaMywNSshkQ-78">
          <mxGeometry relative="1" as="geometry" />
        </mxCell>
        <mxCell id="XzeuhFE9ocaMywNSshkQ-111" style="edgeStyle=orthogonalEdgeStyle;curved=0;rounded=1;sketch=1;orthogonalLoop=1;jettySize=auto;html=1;entryX=0.5;entryY=0;entryDx=0;entryDy=0;fontColor=#095C86;startSize=0;strokeColor=#000000;strokeWidth=3;fillColor=#F694C1;" edge="1" parent="1" source="XzeuhFE9ocaMywNSshkQ-98">
          <mxGeometry relative="1" as="geometry">
            <mxPoint x="885" y="1010" as="targetPoint" />
          </mxGeometry>
        </mxCell>
        <mxCell id="XzeuhFE9ocaMywNSshkQ-98" value="" style="rounded=0;whiteSpace=wrap;html=1;glass=0;fontSize=17;strokeWidth=5;dashed=1;perimeterSpacing=10;strokeColor=#6c8ebf;fillColor=none;" vertex="1" parent="1">
          <mxGeometry x="735" y="690" width="300" height="170" as="geometry" />
        </mxCell>
        <mxCell id="XzeuhFE9ocaMywNSshkQ-100" value="" style="strokeWidth=2;dashed=0;align=center;fontSize=12;shape=rect;verticalLabelPosition=bottom;verticalAlign=top;fillColor=#dae8fc;rounded=1;strokeColor=#6c8ebf;" vertex="1" parent="1">
          <mxGeometry x="915" y="760" width="100" height="50" as="geometry" />
        </mxCell>
        <mxCell id="XzeuhFE9ocaMywNSshkQ-101" value="Zuul" style="text;html=1;resizable=0;autosize=1;align=center;verticalAlign=middle;points=[];fillColor=none;strokeColor=none;rounded=0;fontSize=21;fontColor=default;" vertex="1" parent="1">
          <mxGeometry x="935" y="770" width="60" height="30" as="geometry" />
        </mxCell>
        <mxCell id="XzeuhFE9ocaMywNSshkQ-102" value="" style="strokeWidth=2;dashed=0;align=center;fontSize=12;shape=rect;verticalLabelPosition=bottom;verticalAlign=top;fillColor=#dae8fc;rounded=1;strokeColor=#6c8ebf;" vertex="1" parent="1">
          <mxGeometry x="745" y="760" width="100" height="50" as="geometry" />
        </mxCell>
        <mxCell id="XzeuhFE9ocaMywNSshkQ-103" value="Zuul" style="text;html=1;resizable=0;autosize=1;align=center;verticalAlign=middle;points=[];fillColor=none;strokeColor=none;rounded=0;fontSize=21;fontColor=default;" vertex="1" parent="1">
          <mxGeometry x="765" y="770" width="60" height="30" as="geometry" />
        </mxCell>
        <mxCell id="XzeuhFE9ocaMywNSshkQ-105" value="&lt;span style=&quot;font-size: 22px&quot;&gt;API网关&lt;/span&gt;" style="text;html=1;resizable=0;autosize=1;align=center;verticalAlign=middle;points=[];fillColor=none;strokeColor=none;rounded=0;glass=0;fontSize=15;fontColor=default;" vertex="1" parent="1">
          <mxGeometry x="840" y="700" width="90" height="30" as="geometry" />
        </mxCell>
        <mxCell id="XzeuhFE9ocaMywNSshkQ-115" value="" style="strokeWidth=2;dashed=0;align=center;fontSize=12;shape=rect;verticalLabelPosition=bottom;verticalAlign=top;fillColor=#66FF66;rounded=1;strokeColor=#82b366;" vertex="1" parent="1">
          <mxGeometry x="650" y="1070" width="100" height="50" as="geometry" />
        </mxCell>
        <mxCell id="XzeuhFE9ocaMywNSshkQ-116" value="Service" style="text;html=1;resizable=0;autosize=1;align=center;verticalAlign=middle;points=[];fillColor=none;strokeColor=none;rounded=0;fontSize=21;fontColor=default;" vertex="1" parent="1">
          <mxGeometry x="655" y="1080" width="90" height="30" as="geometry" />
        </mxCell>
        <mxCell id="XzeuhFE9ocaMywNSshkQ-120" value="&lt;span style=&quot;font-size: 22px&quot;&gt;业务层&lt;/span&gt;" style="text;html=1;resizable=0;autosize=1;align=center;verticalAlign=middle;points=[];fillColor=none;strokeColor=none;rounded=0;glass=0;fontSize=15;fontColor=default;" vertex="1" parent="1">
          <mxGeometry x="845" y="1030" width="80" height="30" as="geometry" />
        </mxCell>
        <mxCell id="XzeuhFE9ocaMywNSshkQ-123" value="" style="strokeWidth=2;dashed=0;align=center;fontSize=12;shape=rect;verticalLabelPosition=bottom;verticalAlign=top;fillColor=#66FF66;rounded=1;strokeColor=#82b366;" vertex="1" parent="1">
          <mxGeometry x="650" y="1150" width="100" height="50" as="geometry" />
        </mxCell>
        <mxCell id="XzeuhFE9ocaMywNSshkQ-124" value="Service" style="text;html=1;resizable=0;autosize=1;align=center;verticalAlign=middle;points=[];fillColor=none;strokeColor=none;rounded=0;fontSize=21;fontColor=default;" vertex="1" parent="1">
          <mxGeometry x="655" y="1160" width="90" height="30" as="geometry" />
        </mxCell>
        <mxCell id="XzeuhFE9ocaMywNSshkQ-125" value="" style="strokeWidth=2;dashed=0;align=center;fontSize=12;shape=rect;verticalLabelPosition=bottom;verticalAlign=top;fillColor=#66FF66;rounded=1;strokeColor=#82b366;" vertex="1" parent="1">
          <mxGeometry x="835" y="1150" width="100" height="50" as="geometry" />
        </mxCell>
        <mxCell id="XzeuhFE9ocaMywNSshkQ-126" value="Service" style="text;html=1;resizable=0;autosize=1;align=center;verticalAlign=middle;points=[];fillColor=none;strokeColor=none;rounded=0;fontSize=21;fontColor=default;" vertex="1" parent="1">
          <mxGeometry x="840" y="1160" width="90" height="30" as="geometry" />
        </mxCell>
        <mxCell id="XzeuhFE9ocaMywNSshkQ-127" value="" style="strokeWidth=2;dashed=0;align=center;fontSize=12;shape=rect;verticalLabelPosition=bottom;verticalAlign=top;fillColor=#66FF66;rounded=1;strokeColor=#82b366;" vertex="1" parent="1">
          <mxGeometry x="835" y="1070" width="100" height="50" as="geometry" />
        </mxCell>
        <mxCell id="XzeuhFE9ocaMywNSshkQ-128" value="Service" style="text;html=1;resizable=0;autosize=1;align=center;verticalAlign=middle;points=[];fillColor=none;strokeColor=none;rounded=0;fontSize=21;fontColor=default;" vertex="1" parent="1">
          <mxGeometry x="840" y="1080" width="90" height="30" as="geometry" />
        </mxCell>
        <mxCell id="XzeuhFE9ocaMywNSshkQ-129" value="" style="strokeWidth=2;dashed=0;align=center;fontSize=12;shape=rect;verticalLabelPosition=bottom;verticalAlign=top;fillColor=#66FF66;rounded=1;strokeColor=#82b366;" vertex="1" parent="1">
          <mxGeometry x="1015" y="1070" width="100" height="50" as="geometry" />
        </mxCell>
        <mxCell id="XzeuhFE9ocaMywNSshkQ-130" value="Service" style="text;html=1;resizable=0;autosize=1;align=center;verticalAlign=middle;points=[];fillColor=none;strokeColor=none;rounded=0;fontSize=21;fontColor=default;" vertex="1" parent="1">
          <mxGeometry x="1020" y="1080" width="90" height="30" as="geometry" />
        </mxCell>
        <mxCell id="XzeuhFE9ocaMywNSshkQ-131" value="" style="strokeWidth=2;dashed=0;align=center;fontSize=12;shape=rect;verticalLabelPosition=bottom;verticalAlign=top;fillColor=#66FF66;rounded=1;strokeColor=#82b366;" vertex="1" parent="1">
          <mxGeometry x="1015" y="1150" width="100" height="50" as="geometry" />
        </mxCell>
        <mxCell id="XzeuhFE9ocaMywNSshkQ-132" value="Service" style="text;html=1;resizable=0;autosize=1;align=center;verticalAlign=middle;points=[];fillColor=none;strokeColor=none;rounded=0;fontSize=21;fontColor=default;" vertex="1" parent="1">
          <mxGeometry x="1020" y="1160" width="90" height="30" as="geometry" />
        </mxCell>
      </root>
    </mxGraphModel>
  </diagram>
</mxfile>
